<svg width="32" height="32" viewBox="0 0 32 32" fill="none" xmlns="http://www.w3.org/2000/svg">
<path fill-rule="evenodd" clip-rule="evenodd" d="M16.4494 7.11612C16.9376 6.62796 17.729 6.62796 18.2172 7.11612L26.2172 15.1161C26.7053 15.6043 26.7053 16.3957 26.2172 16.8839L18.2172 24.8839C17.729 25.372 16.9376 25.372 16.4494 24.8839C15.9613 24.3957 15.9613 23.6043 16.4494 23.1161L22.3155 17.25H6.66663C5.97627 17.25 5.41663 16.6904 5.41663 16C5.41663 15.3096 5.97627 14.75 6.66663 14.75H22.3155L16.4494 8.88388C15.9613 8.39573 15.9613 7.60427 16.4494 7.11612Z" fill="url(#paint0_linear_601_4763)"/>
<defs>
<linearGradient id="paint0_linear_601_4763" x1="13.6008" y1="-1.71831" x2="30.2693" y2="17.6157" gradientUnits="userSpaceOnUse">
<stop stop-color="#F95B17"/>
<stop offset="1" stop-color="#E40767"/>
</linearGradient>
</defs>
</svg>
